<?xml version="1.0" standalone="no"?><!DOCTYPE svg PUBLIC "-//W3C//DTD SVG 1.1//EN" "http://www.w3.org/Graphics/SVG/1.1/DTD/svg11.dtd"><svg t="1779167908984" class="icon" viewBox="0 0 1239 1024" version="1.1" xmlns="http://www.w3.org/2000/svg" p-id="1761" xmlns:xlink="http://www.w3.org/1999/xlink" width="241.9921875" height="200"><path d="M1172.924349 929.323535q-30.159594 19.390845-76.286031 29.591884t-102.010392 10.183298q-152.483359 0-240.780005-82.956624t-88.243424-226.090509q0-141.200122 87.196709-225.132498t232.54821-83.932376a448.561867 448.561867 0 0 1 101.744277 11.159049 322.264132 322.264132 0 0 1 85.830656 32.501398V509.164909a251.672941 251.672941 0 0 0-81.164789-46.818334 288.237013 288.237013 0 0 0-95.978473-15.771693q-94.896275 0-149.183544 56.522627t-54.30501 155.978323q0 100.910453 56.771 158.160459t155.481577 57.250006A240.49615 240.49615 0 0 0 1092.309529 858.66138q40.591265-15.789434 80.61482-49.674625zM715.190418 121.578645H424.114855V958.542859h-128.887912V121.578645H0V0h715.190418v121.578645z" p-id="1762" fill="#1296db"></path></svg>
